<svg width="905" height="141" viewBox="0 0 905 141" fill="none" xmlns="http://www.w3.org/2000/svg">
<path d="M4.0536 140.526C2.914 140.526 1.9816 140.163 1.2564 139.438C0.531201 138.713 0.168601 137.781 0.168601 136.641V34.077C0.168601 32.9374 0.531201 32.005 1.2564 31.2798C1.9816 30.5546 2.914 30.192 4.0536 30.192H21.6138C22.6498 30.192 23.5304 30.5546 24.2556 31.2798C25.0844 32.005 25.4988 32.9374 25.4988 34.077V39.8268C27.8816 36.6152 31.0414 33.9734 34.9782 31.9014C38.915 29.7258 43.7842 28.638 49.5858 28.638C54.7658 28.638 59.3242 29.4668 63.261 31.1244C67.1978 32.6784 70.5648 35.0094 73.362 38.1174C76.1592 41.2254 78.3348 45.0068 79.8888 49.4616C81.5464 53.9164 82.4788 59.0446 82.686 64.8462C82.7896 66.9182 82.8414 68.8348 82.8414 70.596C82.8414 72.3572 82.7896 74.2738 82.686 76.3458C82.4788 81.9402 81.5982 86.9648 80.0442 91.4196C78.4902 95.8744 76.3146 99.6558 73.5174 102.764C70.7202 105.872 67.3014 108.306 63.261 110.068C59.3242 111.725 54.7658 112.554 49.5858 112.554C44.5094 112.554 40.0546 111.673 36.2214 109.912C32.4918 108.047 29.3838 105.457 26.8974 102.142V136.641C26.8974 137.781 26.5348 138.713 25.8096 139.438C25.0844 140.163 24.152 140.526 23.0124 140.526H4.0536ZM41.1942 91.7304C44.7166 91.7304 47.462 91.0052 49.4304 89.5548C51.3988 88.1044 52.7974 86.136 53.6262 83.6496C54.5586 81.1632 55.1284 78.4178 55.3356 75.4134C55.5428 72.2018 55.5428 68.9902 55.3356 65.7786C55.1284 62.7742 54.5586 60.0288 53.6262 57.5424C52.7974 55.056 51.3988 53.0876 49.4304 51.6372C47.462 50.1868 44.7166 49.4616 41.1942 49.4616C37.7754 49.4616 35.03 50.2386 32.958 51.7926C30.886 53.243 29.3838 55.1596 28.4514 57.5424C27.519 59.9252 27.001 62.5152 26.8974 65.3124C26.7938 67.2808 26.742 69.1974 26.742 71.0622C26.742 72.927 26.7938 74.8954 26.8974 76.9674C27.001 79.5574 27.5708 81.992 28.6068 84.2712C29.6428 86.4468 31.1968 88.2598 33.2688 89.7102C35.3408 91.057 37.9826 91.7304 41.1942 91.7304ZM102.089 111C100.95 111 100.017 110.637 99.292 109.912C98.5668 109.187 98.2042 108.255 98.2042 107.115V4.55098C98.2042 3.41139 98.5668 2.47899 99.292 1.75379C100.017 1.02859 100.95 0.665988 102.089 0.665988H121.98C123.12 0.665988 124.052 1.02859 124.778 1.75379C125.503 2.47899 125.865 3.41139 125.865 4.55098V39.2052C128.663 35.9936 132.081 33.4554 136.122 31.5906C140.266 29.6222 145.031 28.638 150.419 28.638C156.427 28.638 161.763 29.9848 166.425 32.6784C171.19 35.372 174.92 39.3606 177.614 44.6442C180.307 49.8242 181.654 56.1956 181.654 63.7584V107.115C181.654 108.255 181.291 109.187 180.566 109.912C179.841 110.637 178.909 111 177.769 111H157.722C156.686 111 155.754 110.637 154.925 109.912C154.2 109.187 153.837 108.255 153.837 107.115V64.6908C153.837 59.8216 152.646 56.092 150.263 53.502C147.984 50.8084 144.565 49.4616 140.007 49.4616C135.759 49.4616 132.34 50.8084 129.75 53.502C127.16 56.092 125.865 59.8216 125.865 64.6908V107.115C125.865 108.255 125.503 109.187 124.778 109.912C124.052 110.637 123.12 111 121.98 111H102.089ZM237.503 112.554C228.801 112.554 221.445 111.155 215.436 108.358C209.531 105.561 204.973 101.572 201.761 96.3924C198.653 91.1088 196.892 84.841 196.478 77.589C196.374 75.517 196.322 73.186 196.322 70.596C196.322 67.9024 196.374 65.5714 196.478 63.603C196.892 56.2474 198.757 49.9796 202.072 44.7996C205.387 39.6196 209.997 35.631 215.903 32.8338C221.911 30.0366 229.112 28.638 237.503 28.638C245.998 28.638 253.199 30.0366 259.104 32.8338C265.113 35.631 269.775 39.6196 273.09 44.7996C276.405 49.9796 278.27 56.2474 278.684 63.603C278.788 65.5714 278.84 67.9024 278.84 70.596C278.84 73.186 278.788 75.517 278.684 77.589C278.27 84.841 276.457 91.1088 273.245 96.3924C270.137 101.572 265.579 105.561 259.57 108.358C253.665 111.155 246.309 112.554 237.503 112.554ZM237.503 93.5952C242.165 93.5952 245.532 92.1966 247.604 89.3994C249.78 86.6022 251.023 82.4064 251.334 76.812C251.437 75.258 251.489 73.186 251.489 70.596C251.489 68.006 251.437 65.934 251.334 64.38C251.023 58.8892 249.78 54.7452 247.604 51.948C245.532 49.0472 242.165 47.5968 237.503 47.5968C232.945 47.5968 229.578 49.0472 227.402 51.948C225.227 54.7452 224.035 58.8892 223.828 64.38C223.724 65.934 223.673 68.006 223.673 70.596C223.673 73.186 223.724 75.258 223.828 76.812C224.035 82.4064 225.227 86.6022 227.402 89.3994C229.578 92.1966 232.945 93.5952 237.503 93.5952ZM335.156 111C328.526 111 322.776 109.964 317.907 107.892C313.141 105.716 309.464 102.401 306.874 97.9464C304.284 93.388 302.989 87.5346 302.989 80.3862V50.5494H290.867C289.728 50.5494 288.744 50.1868 287.915 49.4616C287.19 48.7364 286.827 47.804 286.827 46.6644V34.077C286.827 32.9374 287.19 32.005 287.915 31.2798C288.744 30.5546 289.728 30.192 290.867 30.192H302.989V4.55098C302.989 3.41139 303.351 2.47899 304.076 1.75379C304.905 1.02859 305.838 0.665988 306.874 0.665988H324.9C326.04 0.665988 326.972 1.02859 327.697 1.75379C328.422 2.47899 328.785 3.41139 328.785 4.55098V30.192H348.21C349.35 30.192 350.282 30.5546 351.007 31.2798C351.732 32.005 352.095 32.9374 352.095 34.077V46.6644C352.095 47.804 351.732 48.7364 351.007 49.4616C350.282 50.1868 349.35 50.5494 348.21 50.5494H328.785V78.2106C328.785 81.733 329.458 84.5302 330.805 86.6022C332.152 88.6742 334.431 89.7102 337.643 89.7102H349.609C350.748 89.7102 351.681 90.0728 352.406 90.798C353.131 91.5232 353.494 92.4556 353.494 93.5952V107.115C353.494 108.255 353.131 109.187 352.406 109.912C351.681 110.637 350.748 111 349.609 111H335.156ZM404.589 112.554C395.886 112.554 388.531 111.155 382.522 108.358C376.617 105.561 372.058 101.572 368.847 96.3924C365.739 91.1088 363.977 84.841 363.563 77.589C363.459 75.517 363.408 73.186 363.408 70.596C363.408 67.9024 363.459 65.5714 363.563 63.603C363.977 56.2474 365.842 49.9796 369.157 44.7996C372.473 39.6196 377.083 35.631 382.988 32.8338C388.997 30.0366 396.197 28.638 404.589 28.638C413.084 28.638 420.284 30.0366 426.189 32.8338C432.198 35.631 436.86 39.6196 440.175 44.7996C443.49 49.9796 445.355 56.2474 445.77 63.603C445.873 65.5714 445.925 67.9024 445.925 70.596C445.925 73.186 445.873 75.517 445.77 77.589C445.355 84.841 443.542 91.1088 440.331 96.3924C437.223 101.572 432.664 105.561 426.655 108.358C420.75 111.155 413.395 112.554 404.589 112.554ZM404.589 93.5952C409.251 93.5952 412.618 92.1966 414.69 89.3994C416.865 86.6022 418.108 82.4064 418.419 76.812C418.523 75.258 418.575 73.186 418.575 70.596C418.575 68.006 418.523 65.934 418.419 64.38C418.108 58.8892 416.865 54.7452 414.69 51.948C412.618 49.0472 409.251 47.5968 404.589 47.5968C400.03 47.5968 396.663 49.0472 394.488 51.948C392.312 54.7452 391.121 58.8892 390.913 64.38C390.81 65.934 390.758 68.006 390.758 70.596C390.758 73.186 390.81 75.258 390.913 76.812C391.121 82.4064 392.312 86.6022 394.488 89.3994C396.663 92.1966 400.03 93.5952 404.589 93.5952ZM494.464 112.554C487.73 112.554 481.981 111.829 477.215 110.378C472.553 108.824 468.72 106.96 465.715 104.784C462.815 102.608 460.639 100.381 459.189 98.1018C457.738 95.719 456.961 93.6988 456.858 92.0412C456.754 90.9016 457.117 89.9692 457.945 89.244C458.774 88.4152 459.655 88.0008 460.587 88.0008H478.303C478.614 88.0008 478.873 88.0526 479.08 88.1562C479.287 88.2598 479.598 88.467 480.012 88.7778C481.359 89.503 482.706 90.4354 484.053 91.575C485.399 92.611 486.953 93.5434 488.715 94.3722C490.476 95.201 492.6 95.6154 495.086 95.6154C497.987 95.6154 500.421 95.0456 502.39 93.906C504.358 92.7664 505.342 91.057 505.342 88.7778C505.342 87.1202 504.876 85.7734 503.944 84.7374C503.011 83.5978 501.095 82.51 498.194 81.474C495.397 80.438 491.149 79.402 485.451 78.366C480.064 77.1228 475.35 75.517 471.31 73.5486C467.269 71.4766 464.161 68.8348 461.986 65.6232C459.81 62.308 458.722 58.3194 458.722 53.6574C458.722 49.5134 460.069 45.5248 462.763 41.6916C465.456 37.8584 469.393 34.7504 474.573 32.3676C479.753 29.8812 486.125 28.638 493.687 28.638C499.696 28.638 504.876 29.3632 509.227 30.8136C513.682 32.1604 517.412 33.9216 520.416 36.0972C523.524 38.2728 525.855 40.5002 527.409 42.7794C528.963 45.0586 529.792 47.1306 529.896 48.9954C529.999 50.0314 529.688 50.9638 528.963 51.7926C528.238 52.5178 527.409 52.8804 526.477 52.8804H510.315C509.901 52.8804 509.486 52.8286 509.072 52.725C508.658 52.5178 508.295 52.3106 507.984 52.1034C506.741 51.4818 505.498 50.653 504.255 49.617C503.011 48.581 501.561 47.6486 499.903 46.8198C498.246 45.991 496.174 45.5766 493.687 45.5766C490.89 45.5766 488.715 46.1982 487.161 47.4414C485.607 48.6846 484.83 50.2904 484.83 52.2588C484.83 53.6056 485.244 54.8488 486.073 55.9884C487.005 57.128 488.818 58.164 491.512 59.0964C494.309 60.0288 498.608 61.0648 504.41 62.2044C511.558 63.344 517.256 65.2088 521.504 67.7988C525.752 70.2852 528.756 73.2378 530.517 76.6566C532.278 79.9718 533.159 83.4942 533.159 87.2238C533.159 92.1966 531.657 96.5996 528.652 100.433C525.752 104.266 521.4 107.27 515.599 109.446C509.797 111.518 502.752 112.554 494.464 112.554ZM550.212 111C549.072 111 548.14 110.637 547.415 109.912C546.689 109.187 546.327 108.255 546.327 107.115V87.3792C546.327 86.3432 546.689 85.4626 547.415 84.7374C548.14 83.9086 549.072 83.4942 550.212 83.4942H569.792C570.932 83.4942 571.864 83.9086 572.589 84.7374C573.418 85.4626 573.833 86.3432 573.833 87.3792V107.115C573.833 108.255 573.418 109.187 572.589 109.912C571.864 110.637 570.932 111 569.792 111H550.212ZM595.15 111C594.011 111 593.078 110.637 592.353 109.912C591.628 109.187 591.265 108.255 591.265 107.115V34.077C591.265 32.9374 591.628 32.005 592.353 31.2798C593.078 30.5546 594.011 30.192 595.15 30.192H612.089C613.229 30.192 614.161 30.5546 614.886 31.2798C615.611 32.005 615.974 32.9374 615.974 34.077V39.3606C618.046 36.5634 620.947 34.1288 624.676 32.0568C628.406 29.8812 632.809 28.7416 637.885 28.638C649.799 28.4308 657.984 32.9374 662.439 42.1578C664.821 38.221 668.24 35.0094 672.695 32.523C677.15 29.933 682.019 28.638 687.303 28.638C692.69 28.638 697.507 29.8812 701.755 32.3676C706.106 34.7504 709.577 38.48 712.167 43.5564C714.757 48.5292 716.052 55.0042 716.052 62.9814V107.115C716.052 108.255 715.637 109.187 714.808 109.912C714.083 110.637 713.203 111 712.167 111H694.14C693.001 111 692.016 110.637 691.188 109.912C690.462 109.187 690.1 108.255 690.1 107.115V64.0692C690.1 60.4432 689.582 57.5942 688.546 55.5222C687.51 53.3466 686.111 51.7926 684.35 50.8602C682.589 49.9278 680.569 49.4616 678.289 49.4616C676.425 49.4616 674.56 49.9278 672.695 50.8602C670.934 51.7926 669.483 53.3466 668.344 55.5222C667.308 57.5942 666.79 60.4432 666.79 64.0692V107.115C666.79 108.255 666.427 109.187 665.702 109.912C664.977 110.637 664.044 111 662.905 111H644.878C643.739 111 642.806 110.637 642.081 109.912C641.356 109.187 640.993 108.255 640.993 107.115V64.0692C640.993 60.4432 640.424 57.5942 639.284 55.5222C638.144 53.3466 636.694 51.7926 634.933 50.8602C633.172 49.9278 631.203 49.4616 629.028 49.4616C627.163 49.4616 625.298 49.9278 623.433 50.8602C621.672 51.7926 620.222 53.3466 619.082 55.5222C618.046 57.5942 617.528 60.3914 617.528 63.9138V107.115C617.528 108.255 617.114 109.187 616.285 109.912C615.56 110.637 614.627 111 613.488 111H595.15ZM757.705 112.554C752.11 112.554 747.086 111.518 742.631 109.446C738.28 107.27 734.809 104.37 732.219 100.744C729.629 97.1176 728.334 93.0254 728.334 88.467C728.334 81.1114 731.339 75.3098 737.347 71.0622C743.356 66.711 751.333 63.7584 761.279 62.2044L780.704 59.2518V57.0762C780.704 53.3466 779.927 50.4976 778.373 48.5292C776.819 46.5608 773.97 45.5766 769.826 45.5766C766.925 45.5766 764.542 46.1464 762.678 47.286C760.916 48.4256 759.518 49.9796 758.482 51.948C757.549 53.2948 756.254 53.9682 754.597 53.9682H737.192C736.052 53.9682 735.172 53.6574 734.55 53.0358C733.929 52.3106 733.67 51.4818 733.773 50.5494C733.773 48.6846 734.447 46.5608 735.793 44.178C737.244 41.6916 739.419 39.257 742.32 36.8742C745.221 34.4914 748.951 32.523 753.509 30.969C758.067 29.415 763.558 28.638 769.981 28.638C776.715 28.638 782.465 29.415 787.231 30.969C791.996 32.523 795.83 34.6986 798.73 37.4958C801.735 40.293 803.962 43.6082 805.413 47.4414C806.863 51.171 807.588 55.315 807.588 59.8734V107.115C807.588 108.255 807.174 109.187 806.345 109.912C805.62 110.637 804.739 111 803.703 111H785.677C784.537 111 783.605 110.637 782.88 109.912C782.154 109.187 781.792 108.255 781.792 107.115V101.676C780.445 103.644 778.632 105.457 776.353 107.115C774.074 108.773 771.38 110.068 768.272 111C765.268 112.036 761.745 112.554 757.705 112.554ZM765.009 94.8384C768.013 94.8384 770.707 94.2168 773.089 92.9736C775.576 91.6268 777.492 89.6066 778.839 86.913C780.29 84.1158 781.015 80.6452 781.015 76.5012V74.3256L767.806 76.6566C762.937 77.4854 759.362 78.7804 757.083 80.5416C754.908 82.1992 753.82 84.1676 753.82 86.4468C753.82 88.208 754.338 89.7102 755.374 90.9534C756.41 92.1966 757.757 93.1808 759.414 93.906C761.072 94.5276 762.937 94.8384 765.009 94.8384ZM821.861 111C820.928 111 820.1 110.689 819.374 110.068C818.753 109.342 818.442 108.514 818.442 107.581C818.442 107.27 818.494 106.908 818.597 106.493C818.701 105.975 818.908 105.509 819.219 105.095L845.171 69.5082L821.55 36.0972C821.239 35.6828 820.98 35.2684 820.773 34.854C820.669 34.4396 820.618 34.0252 820.618 33.6108C820.618 32.6784 820.98 31.9014 821.705 31.2798C822.431 30.5546 823.259 30.192 824.192 30.192H843.151C844.497 30.192 845.482 30.5028 846.103 31.1244C846.828 31.746 847.346 32.3158 847.657 32.8338L862.109 52.8804L876.406 32.9892C876.821 32.4712 877.339 31.9014 877.96 31.2798C878.685 30.5546 879.721 30.192 881.068 30.192H899.25C900.182 30.192 900.959 30.5546 901.581 31.2798C902.306 31.9014 902.669 32.6784 902.669 33.6108C902.669 34.0252 902.617 34.4396 902.513 34.854C902.41 35.2684 902.203 35.6828 901.892 36.0972L877.649 69.5082L903.912 105.095C904.326 105.509 904.585 105.924 904.689 106.338C904.793 106.752 904.844 107.167 904.844 107.581C904.844 108.514 904.482 109.342 903.757 110.068C903.135 110.689 902.306 111 901.27 111H881.534C880.291 111 879.359 110.741 878.737 110.223C878.116 109.601 877.598 109.032 877.183 108.514L861.488 87.2238L845.637 108.514C845.223 108.928 844.705 109.446 844.083 110.068C843.461 110.689 842.477 111 841.13 111H821.861Z" fill="white"/>
</svg>
